# xmcd CD database file
#
# Track frame offsets:
#	150
#	16272
#	39846
#	50064
#	62727
#	90261
#	116607
#	129856
#	152661
#	171231
#
# Disc length: 2546 seconds
#
# Revision: 0
# Processed by: cddbd v1.4PL0 Copyright (c) Steve Scherf et al.
# Submitted via: CDex 1.51
#
DISCID=7209f00a
DTITLE=Rooster and the Chickenhawks - Live at 640 Bourbon Street Krazy Korner
DYEAR=1996
DGENRE=Jazz
TTITLE0=Dust My Brrom
TTITLE1=You Got Me Running
TTITLE2=Walk Right up to Me Baby
TTITLE3=The Night Time is the Right Time
TTITLE4=Texas Flood
TTITLE5=The Thrill is Gone
TTITLE6=Sweet Home Chicago
TTITLE7=Down Home blues
TTITLE8=The Things I Used to Do
TTITLE9=Shake, Rattle, andRoll
EXTD=YEAR: 1996
EXTT0=
EXTT1=
EXTT2=
EXTT3=
EXTT4=
EXTT5=
EXTT6=
EXTT7=
EXTT8=
EXTT9=
PLAYORDER=
